<svg id="Layer_1" data-name="Layer 1" xmlns="http://www.w3.org/2000/svg" viewBox="0 0 400 300" width="406" height="306" class="illustration styles_illustrationTablet__1DWOa"><title>#70_notes_twocolour</title><ellipse cx="198.59" cy="257.61" rx="151.74" ry="10.42" fill="#e6e6e6" opacity="0.45"></ellipse><rect x="110.1" y="36" width="191.49" height="147" fill="#e6e6e6"></rect><path d="M161.45,245.55s-8.55-2.34-10.41-10.3c0,0,13.25-2.68,13.63,11Z" fill="#0ea5e9" opacity="0.58"></path><path d="M162.5,244.7s-6-9.45-.72-18.28c0,0,10.08,6.4,5.6,18.3Z" fill="#0ea5e9" opacity="0.73"></path><path d="M164,244.71s3.16-10,12.7-11.87c0,0,1.79,6.48-6.18,11.89Z" fill="#0ea5e9"></path><polygon points="157.84 244.48 159.57 256.34 170.49 256.39 172.1 244.54 157.84 244.48" fill="#24285b"></polygon><rect x="182.63" y="55.75" width="37.26" height="37.26" fill="#24285b"></rect><rect x="196.77" y="49.91" width="7.12" height="13.36" fill="#fff" opacity="0.4"></rect><rect x="242.1" y="56.52" width="37.26" height="37.26" fill="#ffd200"></rect><rect x="241.17" y="115.9" width="37.26" height="37.26" fill="none" stroke="#c9c9c9" stroke-linecap="round" stroke-linejoin="round" stroke-dasharray="2 5" opacity="0.76"></rect><rect x="182.63" y="115.9" width="37.26" height="37.26" fill="#c9c9c9"></rect><rect x="124.79" y="115.9" width="37.26" height="37.26" fill="#c9c9c9"></rect><rect x="256.24" y="50.68" width="7.12" height="13.36" fill="#fff" opacity="0.4"></rect><rect x="125.71" y="56.52" width="37.26" height="37.26" fill="#ffd200"></rect><rect x="139.86" y="50.68" width="7.12" height="13.36" fill="#fff" opacity="0.4"></rect><path d="M140.67,139l-14.74.4L121.08,183h21.1a10.19,10.19,0,0,1,8.89-7.33C167.45,174.26,203.5,166,196,120h0L176,143.35l-19.8,10.33Z" opacity="0.08"></path><polygon points="102.4 119.85 105.2 128.26 98.55 132.49 96.15 117.92 102.4 119.85" fill="#f4a28c"></polygon><path d="M93.87,109.79a5.24,5.24,0,0,1,8.66-1.45c2.83,3,6.24,7.83,2.38,10.45-5.91,4-11.33-3.48-11.33-3.48A9.61,9.61,0,0,1,93.87,109.79Z" fill="#f4a28c"></path><path d="M98.19,115s-1.51-1.27-2.2.53,2,2.67,2.79,1.76S98.19,115,98.19,115Z" fill="#f4a28c"></path><path d="M92.89,132.57S69.08,147,66,180.83a11.73,11.73,0,0,0,8.89,12.54l27.91,6.73Z" fill="#0ea5e9"></path><path d="M92.89,132.57S69.08,147,66,180.83a11.73,11.73,0,0,0,8.89,12.54l27.91,6.73Z" fill="#fff" opacity="0.2"></path><rect x="69.97" y="180.83" width="40.27" height="26.33" transform="translate(-72.78 55.36) rotate(-24.68)" fill="#ffd200"></rect><path d="M99,112.77s3.14,9-2.34,8.43-2.47-4.43-5.19-8.43-1.29-6.71,2.86-10.22c1.9-1.61,3.18-2.36,3.94-3.22a3,3,0,0,1,4.94.7C104.65,103.49,104.66,108.11,99,112.77Z" fill="#24285b"></path><path d="M87.39,139.65a19.14,19.14,0,0,1,12-10.49c10.18-3.06,29.52-9.48,35.23.05,7.82,13-4.22,64.22-4.22,64.22L96.2,196.08S77.38,162.14,87.39,139.65Z" fill="#0ea5e9"></path><polygon points="130.41 193.43 125.91 252.25 118.8 252.25 112.45 206.55 96.72 196.08 130.41 193.43" fill="#24285b"></polygon><polygon points="96.72 196.08 86.9 252.25 94.53 252.25 111 205.59 96.72 196.08" fill="#24285b"></polygon><path d="M102.36,128.27s-16,51.54,30.21,55l-2.16,10.2L96.2,196.08a88.92,88.92,0,0,1-11.55-45.51s.3-13.15,9.55-19A20.86,20.86,0,0,1,102.36,128.27Z" opacity="0.08"></path><path d="M88.29,252.25l-4.74,3.48a1,1,0,0,0,.62,1.88H92.1a1,1,0,0,0,1-1v-4.32Z" fill="#0ea5e9"></path><path d="M125.71,252.25l4.46,3.48a1.05,1.05,0,0,1-.65,1.88h-5.65a3,3,0,0,1-3-3v-2.35Z" fill="#0ea5e9"></path><path d="M194.65,123.61s3.46-5.49-.49-7-3.6,5.78-3.6,5.78Z" fill="#f4a28c"></path><path d="M195.69,123.91l-5.13-1.5L168.06,142h0a12.45,12.45,0,0,1-12.27,2.36A27.88,27.88,0,0,1,141,132.57c-8.09-13.12-21.83-8.38-21.83-8.38s-10.35,10.21,10.16,27.71c12.25,10.44,24.78,11.1,32.9,9.93a27.3,27.3,0,0,1,3-.19,7.89,7.89,0,0,0,2.78-.63,30.27,30.27,0,0,0,3.18-1.58h0C179.55,154.68,188.53,144.49,195.69,123.91Z" fill="#0ea5e9"></path><path d="M195.69,123.91l-5.13-1.5L168.06,142h0a12.45,12.45,0,0,1-12.27,2.36A27.88,27.88,0,0,1,141,132.57c-8.09-13.12-21.83-8.38-21.83-8.38s-10.35,10.21,10.16,27.71c12.25,10.44,24.78,11.1,32.9,9.93a27.3,27.3,0,0,1,3-.19,7.89,7.89,0,0,0,2.78-.63,30.27,30.27,0,0,0,3.18-1.58h0C179.55,154.68,188.53,144.49,195.69,123.91Z" fill="#fff" opacity="0.2"></path><rect x="133.9" y="71.46" width="20.89" height="3.69" fill="#fff" opacity="0.4"></rect><rect x="262.33" y="85.25" width="13.28" height="3.69" fill="#fff" opacity="0.4"></rect><rect x="201.26" y="85.25" width="13.28" height="3.69" fill="#ffd200"></rect><rect x="133.9" y="79.75" width="20.89" height="3.69" fill="#fff" opacity="0.4"></rect><rect x="249.23" y="162.25" width="21.15" height="5.42" fill="#c9c9c9"></rect><rect x="190.69" y="162.25" width="21.15" height="5.42" fill="#c9c9c9"></rect><rect x="301.35" y="239.2" width="22.47" height="2.89" fill="#adadad"></rect><polygon points="300.43 213.9 297.59 257.61 300.43 257.61 306.44 213.9 300.43 213.9" fill="#c9c9c9"></polygon><polygon points="323.78 213.9 326.61 257.61 323.78 257.61 317.77 213.9 323.78 213.9" fill="#c9c9c9"></polygon><rect x="297.59" y="208.31" width="29.02" height="6.88" fill="#e6e6e6"></rect><path d="M320.49,205.92h-5.78v-1.27h5.78a1.54,1.54,0,0,0,1.54-1.54V199a1.54,1.54,0,0,0-1.54-1.54h-5.78v-1.27h5.78A2.81,2.81,0,0,1,323.3,199v4.13A2.81,2.81,0,0,1,320.49,205.92Z" fill="#ffd200"></path><path d="M320.49,205.92h-5.78v-1.27h5.78a1.54,1.54,0,0,0,1.54-1.54V199a1.54,1.54,0,0,0-1.54-1.54h-5.78v-1.27h5.78A2.81,2.81,0,0,1,323.3,199v4.13A2.81,2.81,0,0,1,320.49,205.92Z" fill="#fff" opacity="0.46"></path><rect x="306.74" y="193.27" width="11.25" height="15.13" fill="#ffd200"></rect><ellipse cx="312.51" cy="200.59" rx="3.37" ry="3.77" opacity="0.08"></ellipse><path d="M308.45,193.27s-1.59-5.3,2.65-5.83,10.08.53,7.9-5.84-5-5-1.85-12.2,11.56,5.63,14.64-1.16,7.32-4.45,11.56-1.11,5.09,13.73-3.29,15.32-10.08,3.41-11.77,8.07S318,193.27,318,193.27Z" fill="#e6e6e6"></path></svg>